# AST/ASF file generated using VICON BodyLanguage
# -----------------------------------------------
:version 1.10
:name VICON
:units
  mass 1.0
  length 0.45
  angle deg
:documentation
   .ast/.asf automatically generated from VICON data using
   VICON BodyBuilder and BodyLanguage model FoxedUp or BRILLIANT.MOD
:root
   order TX TY TZ RX RY RZ
   axis XYZ
   position 0 0 0  
   orientation 0 0 0 
:bonedata
  begin
     id 1 
     name lhipjoint
     direction 0.627457 -0.725269 0.283342 
     length 2.53237 
     axis 0 0 0  XYZ
  end
  begin
     id 2 
     name lfemur
     direction 0.34202 -0.939693 0  
     length 7.32496  
     axis 0 0 20  XYZ
    dof rx ry rz
    limits (-160.0 20.0)
           (-70.0 70.0)
           (-60.0 70.0)
  end
  begin
     id 3 
     name ltibia
     direction 0.34202 -0.939693 0   
     length 7.69674   
     axis 0 0 20   XYZ
    dof rx
    limits (-10.0 170.0)
  end
  begin
     id 4 
     name lfoot
     direction 0.127289 -0.349722 0.928166   
     length 1.8612   
     axis -90 7.62852e-016 20   XYZ
    dof rx rz
    limits (-45.0 90.0)
           (-70.0 20.0)
  end
  begin
     id 5 
     name ltoes
     direction 1.53561e-011 -4.21864e-011 1   
     length 0.925608   
     axis -90 7.62852e-016 20   XYZ
    dof rx
    limits (-90.0 20.0)
  end
  begin
     id 6 
     name rhipjoint
     direction -0.609094 -0.738725 0.288599   
     length 2.48624  
     axis 0 0 0  XYZ 
  end
  begin
     id 7 
     name rfemur
     direction -0.34202 -0.939693 0   
     length 7.44259   
     axis 0 0 -20   XYZ
    dof rx ry rz
    limits (-160.0 20.0)
           (-70.0 70.0)
           (-70.0 60.0)
  end
  begin
     id 8 
     name rtibia
     direction -0.34202 -0.939693 0   
     length 7.7781   
     axis 0 0 -20   XYZ
    dof rx
    limits (-10.0 170.0)
 end
 begin
     id 9 
     name rfoot
     direction -0.107015 -0.294021 0.949789   
     length 2.14741  
     axis -90 -7.62852e-016 -20   XYZ
    dof rx rz
    limits (-45.0 90.0)
           (-20.0 70.0)
  end
  begin
     id 10 
     name rtoes
     direction -1.53497e-011 -4.21924e-011 1   
     length 1.0706   
     axis -90 -7.62852e-016 -20   XYZ
    dof rx
    limits (-90.0 20.0)
  end
  begin
     id 11 
     name lowerback
     direction -0.0142066 0.998112 -0.0597545   
     length 1.86627   
     axis 0 0 0   XYZ
    dof rx ry rz
    limits (-20.0 45.0)
           (-30.0 30.0)
           (-30.0 30.0)
  end
  begin
     id 12 
     name upperback
     direction 0.00547294 0.999744 0.0219437   
     length 1.86272   
     axis 0 0 0   XYZ
    dof rx ry rz
    limits (-20.0 45.0)
           (-30.0 30.0)
           (-30.0 30.0)
  end
  begin
     id 13 
     name thorax
     direction 0.0116162 0.998704 0.0495538   
     length 1.8703   
     axis 0 0 0   XYZ
    dof rx ry rz
    limits (-20.0 45.0)
           (-30.0 30.0)
           (-30.0 30.0)
  end
  begin
     id 14 
     name lowerneck
     direction -0.0106574 0.998739 0.0490586   
     length 1.8074   
     axis 0 0 0   XYZ
    dof rx ry rz
    limits (-20.0 45.0)
           (-30.0 30.0)
           (-30.0 30.0)
  end
  begin
     id 15 
     name upperneck
     direction 0.030527 0.976587 -0.212944   
     length 1.80681   
     axis 0 0 0   XYZ
    dof rx ry rz
    limits (-20.0 45.0)
           (-30.0 30.0)
           (-30.0 30.0)
  end
  begin
     id 16
     name head
     direction 0.00869225 0.997035 -0.0764531  
     length 1.8313  
     axis 0 0 0   XYZ
    dof rx ry rz
    limits (-20.0 45.0)
           (-30.0 30.0)
           (-30.0 30.0)
  end
  begin
     id 17 
     name lclavicle
     direction 0.915958 0.399447 0.0382386  
     length 3.78965  
     axis 0 0 0   XYZ
    dof ry rz
    limits (-20.0 10.0)
           (0.0 20.0)
  end
  begin
     id 18 
     name lhumerus
     direction 1 -4.48967e-011 3.19303e-027   
     length 4.78095   
     axis -180 -30 -90   XYZ
    dof rx ry rz
    limits (-60.0 90.0)
           (-90.0 90.0)
           (-90.0 90.0)
  end
  begin
     id 19
     name lradius
     direction 1 -4.48967e-011 -3.77974e-027   
     length 3.58615   
     axis -180 -30 -90   XYZ
    dof rx
    limits (-10.0 170.0)
  end
  begin
     id 20
     name lwrist
     direction 1 -4.48927e-011 1.2807e-027   
     length 1.79307   
     axis 1.91374e-015 90 90   XYZ
    dof ry
    limits (-180.0 0.0)
 end
  begin
     id 21 
     name lhand
     direction 1 -4.49036e-011 2.5614e-027   
     length 0.659812   
     axis -1.63439e-015 90 90   XYZ
    dof rx rz
    limits (-90.0 90.0)
           (-45.0 45.0)
  end
  begin
     id 22 
     name lfingers
     direction 1 -4.49052e-011 5.1228e-027   
     length 0.531957   
     axis -3.26879e-015 90 90   XYZ
    dof rx
    limits (0.0 90.0)
  end
  begin
     id 23
     name lthumb
     direction 0.707107 -6.35012e-011 0.707107   
     length 0.763787   
     axis -90 45 2.85299e-015   XYZ
    dof rx rz
    limits (-45.0 45.0)
           (-45.0 45.0)
  end
  begin
     id 24 
     name rclavicle
     direction -0.895351 0.435135 0.0948887   
     length 3.70497  
     axis 0 0 0   XYZ 
    dof ry rz
    limits (-10.0 20.0)
           (-20.0 0.0)
  end
  begin
     id 25 
     name rhumerus
     direction -1 -4.48971e-011 2.38946e-027  
     length 4.48913   
     axis -180 30 90   XYZ
    dof rx ry rz
    limits (-90.0 60.0)
           (-90.0 90.0)
           (-90.0 90.0)
  end
  begin
     id 26 
     name rradius
     direction -1 -4.4895e-011 4.38668e-027   
     length 3.7051   
     axis -180 30 90   XYZ
    dof rx
    limits (-10.0 170.0)
  end
  begin
     id 27 
     name rwrist
     direction -1 -4.49007e-011 1.2807e-027   
     length 1.85255   
     axis 1.91374e-015 -90 -90   XYZ
    dof ry
    limits (-180.0 0.0)
  end
  begin
     id 28
     name rhand
     direction -1 -4.48851e-011 2.5614e-027   
     length 0.449136   
     axis -1.63439e-015 -90 -90   XYZ
    dof rx rz
    limits (-90.0 90.0)
           (-45.0 45.0)
  end
  begin
     id 29
     name rfingers
     direction -1 -4.49128e-011 5.1228e-027   
     length 0.362105   
     axis -3.26879e-015 -90 -90   XYZ
    dof rx
    limits (0.0 90.0)
  end
  begin
     id 30
     name rthumb
     direction -0.707107 -6.34851e-011 0.707107   
     length 0.519912   
     axis -90 -45 -2.85299e-015   XYZ
    dof rx rz
    limits (-45.0 45.0)
           (-45.0 45.0)
  end
:hierarchy
  begin
    root lhipjoint rhipjoint lowerback
    lhipjoint lfemur
    lfemur ltibia
    ltibia lfoot
    lfoot ltoes
    rhipjoint rfemur
    rfemur rtibia
    rtibia rfoot
    rfoot rtoes
    lowerback upperback
    upperback thorax
    thorax lowerneck lclavicle rclavicle
    lowerneck upperneck
    upperneck head
    lclavicle lhumerus
    lhumerus lradius
    lradius lwrist
    lwrist lhand lthumb
    lhand lfingers
    rclavicle rhumerus
    rhumerus rradius
    rradius rwrist
    rwrist rhand rthumb
    rhand rfingers
  end

#!OML:ASF I:\Actors\actors\Patient Classification 2\Patient 1\Session 1\actor1.ASF
:FULLY-SPECIFIED
:DEGREES
35
root -0.9125 18.7476 5.44116 2.0392 0.60791 -3.14671
lowerback 13.041 -0.141613 1.20078
upperback 0.584336 0.141897 2.16636
thorax -6.71033 0.0665673 1.58498
lowerneck -8.63948 -0.651485 1.78956
upperneck 21.3024 -0.887816 -1.52135
head 7.98049 -0.424538 -0.887854
rclavicle 1.30701e-014 4.37326e-015
rhumerus -40.4708 4.90014 -89.1312
rradius 39.6484
rwrist 18.5519
rhand -8.59422 -29.012
rfingers 7.12502
rthumb 17.337 -58.2588
lclavicle 1.30701e-014 4.37326e-015
lhumerus -39.5411 -4.78555 95.2555
lradius 40.4493
lwrist -1.10569
lhand -7.54033 -24.7348
lfingers 7.12502
lthumb 18.3511 4.4196
rfemur 5.63174 -1.01548 18.2107
rtibia 3.18055e-014
rfoot -16.2076 -11.4312
rtoes -6.6387
lfemur -8.52211 -3.87068 -10.1973
ltibia 22.9182
lfoot -18.6225 7.86002
ltoes -57.2999
36
root -0.909333 18.7483 5.44395 2.08369 0.607525 -3.09873
lowerback 12.99 -0.140218 1.17049
upperback 0.557779 0.135188 2.11748
thorax -6.70974 0.0634738 1.55144
lowerneck -8.55691 -0.648782 1.90083
upperneck 21.2225 -0.895361 -1.55203
head 7.93794 -0.422439 -0.916286
rclavicle 3.67752e-015 -1.19271e-014
rhumerus -40.5002 4.79789 -89.1878
rradius 39.665
rwrist 18.581
rhand -8.55012 -29.0434
rfingers 7.12502
rthumb 17.3795 -58.2864
lclavicle 3.67752e-015 -1.19271e-014
lhumerus -39.5733 -4.82336 95.22
lradius 40.4463
lwrist -1.0985
lhand -7.60342 -24.7264
lfingers 7.12502
lthumb 18.2904 4.43364
rfemur 5.59344 -1.01763 18.1467
rtibia -1.90833e-014
rfoot -16.1906 -11.4495
rtoes -6.81638
lfemur -8.55044 -3.89413 -10.262
ltibia 22.9041
lfoot -18.6323 7.85359
ltoes -57.2546
37
root -0.90573 18.7486 5.44805 2.0922 0.611448 -3.07274
lowerback 12.9613 -0.135149 1.17488
upperback 0.543515 0.139333 2.07674
thorax -6.70869 0.0647186 1.50496
lowerneck -8.52613 -0.659263 1.92866
upperneck 21.2101 -0.932526 -1.46557
head 7.92806 -0.429716 -0.895513
rclavicle 9.49197e-015 -2.56432e-014
rhumerus -40.5506 4.66913 -89.2335
rradius 39.7201
rwrist 18.626
rhand -8.58741 -29.1297
rfingers 7.12502
rthumb 17.3436 -58.3759
lclavicle 9.49197e-015 -2.56432e-014
lhumerus -39.6002 -4.89097 95.209
lradius 40.4269
lwrist -1.07753
lhand -7.65167 -24.7488
lfingers 7.12502
lthumb 18.244 4.41566
rfemur 5.59842 -1.02208 18.1022
rtibia -4.77083e-015
rfoot -16.211 -11.4288
rtoes -6.5448
lfemur -8.535 -3.99486 -10.3133
ltibia 22.8947
lfoot -18.6747 7.94456
ltoes -57.2095
38
root -0.902283 18.7479 5.45227 2.07688 0.635537 -3.07412
lowerback 12.9576 -0.140498 1.19178
upperback 0.536183 0.134284 2.0689
thorax -6.71429 0.061613 1.48807
lowerneck -8.59493 -0.674483 1.80398
upperneck 21.2708 -0.957512 -1.35295
head 7.96177 -0.440556 -0.84049
rclavicle 1.00883e-014 2.78299e-015
rhumerus -40.5893 4.57753 -89.2404
rradius 39.7605
rwrist 18.6347
rhand -8.58073 -29.1623
rfingers 7.12502
rthumb 17.35 -58.4079
lclavicle 1.00883e-014 2.78299e-015
lhumerus -39.6045 -4.94429 95.2417
lradius 40.3885
lwrist -1.02423
lhand -7.7051 -24.7681
lfingers 7.12502
lthumb 18.1926 4.40111
rfemur 5.63102 -1.04495 18.0873
rtibia 7.95139e-015
rfoot -16.2756 -11.3799
rtoes -6.06341
lfemur -8.51344 -4.04652 -10.3277
ltibia 22.8976
lfoot -18.6894 7.98073
ltoes -57.2292
39
root -0.899619 18.7474 5.45507 2.0894 0.640613 -3.09387
lowerback 12.9559 -0.140068 1.19845
upperback 0.509179 0.137885 2.08886
thorax -6.74227 0.0635105 1.50503
lowerneck -8.73832 -0.694803 1.57351
upperneck 21.3879 -0.968013 -1.26017
head 8.02863 -0.454613 -0.773707
rclavicle -5.1684e-015 7.15625e-015
rhumerus -40.6165 4.53776 -89.215
rradius 39.7507
rwrist 18.672
rhand -8.47091 -29.1964
rfingers 7.12502
rthumb 17.4557 -58.4327
lclavicle -5.1684e-015 7.15625e-015
lhumerus -39.6274 -4.90659 95.2836
lradius 40.3801
lwrist -1.01424
lhand -7.69825 -24.7525
lfingers 7.12502
lthumb 18.1992 4.41611
rfemur 5.62438 -1.04948 18.1009
rtibia -7.95139e-015
rfoot -16.287 -11.3571
rtoes -5.87363
lfemur -8.53269 -4.0436 -10.3118
ltibia 22.915
lfoot -18.6732 7.98853
ltoes -57.2954
40
root -0.89695 18.748 5.4585 2.1198 0.625351 -3.10883
lowerback 12.942 -0.129151 1.20588
upperback 0.465435 0.155357 2.10497
thorax -6.78143 0.0721033 1.51499
lowerneck -8.74089 -0.713943 1.44618
upperneck 21.3961 -0.980417 -1.22279
head 8.03254 -0.466947 -0.741106
rclavicle 7.25564e-015 -1.39149e-015
rhumerus -40.6424 4.48968 -89.1883
rradius 39.7148
rwrist 18.7208
rhand -8.42117 -29.1976
rfingers 7.12502
rthumb 17.5036 -58.4296
lclavicle 7.25564e-015 -1.39149e-015
lhumerus -39.6959 -4.81786 95.3097
lradius 40.4133
lwrist -1.08514
lhand -7.63572 -24.7049
lfingers 7.12502
lthumb 18.2593 4.45815
rfemur 5.59987 -1.03448 18.1102
rtibia 1.59028e-014
rfoot -16.2613 -11.3668
rtoes -5.97141
lfemur -8.56079 -4.0469 -10.3053
ltibia 22.9402
lfoot -18.6893 8.00445
ltoes -57.3177
41
root -0.89418 18.7486 5.46319 2.13066 0.626364 -3.10862
lowerback 12.9193 -0.126231 1.21511
upperback 0.441663 0.160378 2.10164
thorax -6.79407 0.074224 1.50538
lowerneck -8.66094 -0.727177 1.46468
upperneck 21.3217 -0.997496 -1.23856
head 7.99266 -0.475234 -0.749998
rclavicle 7.25564e-015 -1.25234e-014
rhumerus -40.6678 4.43489 -89.1913
rradius 39.7412
rwrist 18.6868
rhand -8.39396 -29.2416
rfingers 7.12502
rthumb 17.5297 -58.4712
lclavicle 7.25564e-015 -1.25234e-014
lhumerus -39.72 -4.74973 95.3096
lradius 40.4118
lwrist -1.14872
lhand -7.57459 -24.682
lfingers 7.12502
lthumb 18.3181 4.47551
rfemur 5.60348 -1.03543 18.0995
rtibia -1.59028e-014
rfoot -16.2756 -11.371
rtoes -6.05889
lfemur -8.56357 -4.04651 -10.3165
ltibia 22.9669
lfoot -18.7376 7.98117
ltoes -57.2665
42
root -0.892525 18.7489 5.46794 2.17555 0.623599 -3.1223
lowerback 12.8428 -0.124908 1.22971
upperback 0.41764 0.162469 2.09587
thorax -6.77664 0.0747003 1.49029
lowerneck -8.66291 -0.74036 1.46427
upperneck 21.3312 -1.01887 -1.22397
head 7.99599 -0.483997 -0.74717
rclavicle -8.15017e-015 -1.25234e-014
rhumerus -40.712 4.39445 -89.2169
rradius 39.812
rwrist 18.601
rhand -8.38032 -29.3176
rfingers 7.12502
rthumb 17.5429 -58.5461
lclavicle -8.15017e-015 -1.25234e-014
lhumerus -39.7251 -4.69098 95.3
lradius 40.4022
lwrist -1.16878
lhand -7.53814 -24.6417
lfingers 7.12502
lthumb 18.3532 4.51245
rfemur 5.56669 -1.03356 18.1124
rtibia -1.59028e-014
rfoot -16.3008 -11.374
rtoes -6.04545
lfemur -8.60422 -4.00636 -10.2997
ltibia 22.9869
lfoot -18.759 7.94891
ltoes -57.2655
43
root -0.891359 18.7491 5.47393 2.25611 0.619082 -3.14073
lowerback 12.7208 -0.119169 1.26357
upperback 0.36834 0.172249 2.08431
thorax -6.76066 0.0782321 1.45668
lowerneck -8.66483 -0.757874 1.39035
upperneck 21.3965 -1.05208 -1.12291
head 8.01884 -0.495714 -0.704842
rclavicle 9.44227e-016 2.0276e-014
rhumerus -40.7749 4.32812 -89.2336
rradius 39.8471
rwrist 18.5633
rhand -8.4659 -29.2897
rfingers 7.12502
rthumb 17.4605 -58.5256
lclavicle 9.44227e-016 2.0276e-014
lhumerus -39.7719 -4.66782 95.3067
lradius 40.396
lwrist -1.16353
lhand -7.51564 -24.5883
lfingers 7.12502
lthumb 18.3748 4.56386
rfemur 5.49748 -1.03097 18.1338
rtibia -3.18055e-015
rfoot -16.3414 -11.3603
rtoes -5.83626
lfemur -8.67377 -3.97909 -10.2758
ltibia 22.9893
lfoot -18.758 7.96964
ltoes -57.3163
44
root -0.890473 18.7492 5.48188 2.29496 0.632804 -3.12511
lowerback 12.6113 -0.110947 1.27595
upperback 0.328452 0.180985 2.0546
thorax -6.74153 0.0816366 1.41624
lowerneck -8.61707 -0.769327 1.36186
upperneck 21.457 -1.09154 -0.987465
head 8.03103 -0.503437 -0.658977
rclavicle -1.98785e-016 2.80286e-014
rhumerus -40.8105 4.18961 -89.2241
rradius 39.8057
rwrist 18.6401
rhand -8.57193 -29.1501
rfingers 7.12502
rthumb 17.3585 -58.3949
lclavicle -1.98785e-016 2.80286e-014
lhumerus -39.8161 -4.73768 95.3293
lradius 40.3617
lwrist -1.09819
lhand -7.51479 -24.5381
lfingers 7.12502
lthumb 18.3757 4.61401
rfemur 5.48904 -1.04631 18.116
rtibia -3.18055e-015
rfoot -16.4083 -11.3236
rtoes -5.55843
lfemur -8.68456 -3.95741 -10.2939
ltibia 22.9737
lfoot -18.758 7.97811
ltoes -57.3335
45
root -0.889349 18.7486 5.49131 2.28041 0.629438 -3.07701
lowerback 12.5089 -0.0980699 1.25038
upperback 0.320172 0.188904 2.01172
thorax -6.69272 0.0856398 1.38328
lowerneck -8.59368 -0.775505 1.32622
upperneck 21.4995 -1.12444 -0.844956
head 8.04191 -0.508044 -0.608967
rclavicle -6.03808e-015 1.15295e-014
rhumerus -40.8042 4.05863 -89.231
rradius 39.7417
rwrist 18.6607
rhand -8.53358 -29.1661
rfingers 7.12502
rthumb 17.3954 -58.4077
lclavicle -6.03808e-015 1.15295e-014
lhumerus -39.8646 -4.82023 95.3423
lradius 40.3613
lwrist -0.993661
lhand -7.54399 -24.4595
lfingers 7.12502
lthumb 18.3476 4.69523
rfemur 5.54379 -1.04388 18.0583
rtibia -1.90833e-014
rfoot -16.4623 -11.2904
rtoes -5.4438
lfemur -8.62114 -3.93162 -10.3543
ltibia 22.9432
lfoot -18.7851 7.95665
ltoes -57.3349
46
root -0.886783 18.7478 5.50241 2.26248 0.61403 -3.05137
lowerback 12.3873 -0.0904236 1.28756
upperback 0.30844 0.197542 1.95495
thorax -6.63651 0.0877859 1.30002
lowerneck -8.56934 -0.784118 1.27009
upperneck 21.5143 -1.1567 -0.704769
head 8.04352 -0.514335 -0.556019
rclavicle 1.88845e-015 2.98177e-015
rhumerus -40.85 3.95092 -89.273
rradius 39.7664
rwrist 18.5694
rhand -8.45156 -29.24
rfingers 7.12502
rthumb 17.4743 -58.4746
lclavicle 1.88845e-015 2.98177e-015
lhumerus -39.9537 -4.85048 95.3131
lradius 40.3953
lwrist -0.935535
lhand -7.57061 -24.4681
lfingers 7.12502
lthumb 18.322 4.68903
rfemur 5.60482 -1.02824 18.018
rtibia -1.43125e-014
rfoot -16.4957 -11.2769
rtoes -5.60834
lfemur -8.53413 -3.92203 -10.397
ltibia 22.895
lfoot -18.8086 7.96526
ltoes -57.3832
47
root -0.884323 18.7477 5.51365 2.27945 0.608334 -3.04169
lowerback 12.2358 -0.0903963 1.34673
upperback 0.279393 0.198832 1.89922
thorax -6.58171 0.0857035 1.20683
lowerneck -8.57281 -0.780587 1.22034
upperneck 21.5852 -1.17938 -0.539478
head 8.06928 -0.512907 -0.495421
rclavicle 3.57812e-015 1.09332e-014
rhumerus -40.9444 3.84207 -89.31
rradius 39.8238
rwrist 18.5649
rhand -8.47434 -29.1352
rfingers 7.12502
rthumb 17.4524 -58.3717
lclavicle 3.57812e-015 1.09332e-014
lhumerus -40.0416 -4.86882 95.2661
lradius 40.4168
lwrist -0.920273
lhand -7.58482 -24.4952
lfingers 7.12502
lthumb 18.3083 4.66323
rfemur 5.62661 -1.02298 17.9977
rtibia 2.06736e-014
rfoot -16.5199 -11.2671
rtoes -5.70015
lfemur -8.47681 -3.91011 -10.4165
ltibia 22.8357
lfoot -18.8035 7.96955
ltoes -57.4136
48
root -0.882736 18.7483 5.52563 2.30899 0.573909 -3.00034
lowerback 12.0595 -0.086832 1.33484
upperback 0.252839 0.194799 1.85399
thorax -6.51048 0.0834686 1.16575
lowerneck -8.61225 -0.783075 1.09471
upperneck 21.6885 -1.20039 -0.364355
head 8.11307 -0.51562 -0.418941
rclavicle -1.46604e-015 1.55052e-014
rhumerus -41.0125 3.81727 -89.351
rradius 39.8386
rwrist 18.5798
rhand -8.45779 -29.1035
rfingers 7.12502
rthumb 17.4683 -58.3386
lclavicle -1.46604e-015 1.55052e-014
lhumerus -40.1109 -4.86283 95.2247
lradius 40.424
lwrist -0.919271
lhand -7.58259 -24.4717
lfingers 7.12502
lthumb 18.3104 4.68648
rfemur 5.63616 -0.990749 17.9453
rtibia -9.54166e-015
rfoot -16.5625 -11.2228
rtoes -5.44459
lfemur -8.42148 -3.92076 -10.4712
ltibia 22.7766
lfoot -18.8313 7.99224
ltoes -57.3575
49
root -0.880782 18.7485 5.54224 2.30514 0.525412 -2.9698
lowerback 11.8726 -0.0914034 1.35244
upperback 0.211976 0.183686 1.80148
thorax -6.44822 0.0767224 1.10167
lowerneck -8.5158 -0.799052 1.03023
upperneck 21.7249 -1.23482 -0.253623
head 8.1087 -0.526493 -0.3742
rclavicle 8.87077e-015 -1.19271e-014
rhumerus -41.1275 3.81636 -89.4146
rradius 39.8465
rwrist 18.5594
rhand -8.32069 -29.1737
rfingers 7.12502
rthumb 17.6003 -58.3971
lclavicle 8.87077e-015 -1.19271e-014
lhumerus -40.2341 -4.79851 95.1604
lradius 40.4133
lwrist -0.952461
lhand -7.56323 -24.491
lfingers 7.12502
lthumb 18.3291 4.66546
rfemur 5.69585 -0.942822 17.9042
rtibia 1.11319e-014
rfoot -16.6162 -11.1852
rtoes -5.36349
lfemur -8.30616 -3.9611 -10.525
ltibia 22.7147
lfoot -18.9102 8.04748
ltoes -57.3139
